<svg width="20" height="16" viewBox="0 0 20 16" fill="none" xmlns="http://www.w3.org/2000/svg">
<path d="M19.059 8.898L15.888 0.971C15.7735 0.684262 15.5757 0.438451 15.32 0.265348C15.0644 0.0922455 14.7627 -0.000187492 14.454 2.85536e-07H12.02L12.4 4.065H15.1L9.99997 8.293L4.89997 4.065H7.59997L7.97997 2.85536e-07H5.54597C4.91397 2.85536e-07 4.34597 0.384 4.11197 0.971L0.940967 8.898C0.653072 9.61867 0.567996 10.4044 0.694967 11.17L1.28497 14.709C1.34488 15.0697 1.53083 15.3974 1.80972 15.6338C2.08862 15.8702 2.44236 16 2.80797 16H17.191C17.946 16 18.59 15.454 18.714 14.709L19.304 11.17C19.4328 10.4045 19.348 9.61839 19.059 8.898ZM16.959 13.245C16.9241 13.4561 16.8154 13.6479 16.6521 13.7862C16.4889 13.9245 16.2819 14.0003 16.068 14H3.93197C3.71804 14.0003 3.51099 13.9245 3.34778 13.7862C3.18457 13.6479 3.07583 13.4561 3.04097 13.245L2.67597 11.052C2.65414 10.9226 2.66082 10.7899 2.69556 10.6633C2.7303 10.5367 2.79226 10.4192 2.8771 10.319C2.96195 10.2189 3.06764 10.1384 3.18679 10.0833C3.30594 10.0282 3.43569 9.99977 3.56697 10H16.434C16.992 10 17.417 10.501 17.325 11.052L16.959 13.245Z" fill="white"/>
</svg>
